<?xml version="1.0" encoding="UTF-8"?>
<svg width="40px" height="35px" viewBox="0 0 40 35" version="1.1" xmlns="http://www.w3.org/2000/svg" xmlns:xlink="http://www.w3.org/1999/xlink">
    <!-- Generator: Sketch 51 (57462) - http://www.bohemiancoding.com/sketch -->
    <title>bricks</title>
    <desc>Created with Sketch.</desc>
    <defs></defs>
    <g id="Page-1" stroke="none" stroke-width="1" fill="none" fill-rule="evenodd">
        <g id="Android" transform="translate(-136.000000, -315.000000)" fill="#FFFFFF" fill-rule="nonzero">
            <g id="bricks" transform="translate(136.000000, 315.000000)">
                <path d="M36.7819556,16.6227848 L28.8544,16.6227848 C29.0553778,16.209962 29.1682667,15.7468987 29.1682667,15.2580506 L29.1682667,3.18234177 C29.1682667,1.45263291 27.7566222,0.0454556962 26.0215111,0.0454556962 L13.9073778,0.0454556962 C12.1721778,0.0454556962 10.7605333,1.45263291 10.7605333,3.18234177 L10.7605333,15.2580506 C10.7605333,15.7468987 10.8734222,16.209962 11.0744,16.6227848 L3.14684444,16.6227848 C1.41173333,16.6227848 0,18.029962 0,19.7596709 L0,31.8353797 C0,33.5650886 1.41173333,34.9722658 3.14684444,34.9722658 L15.2608,34.9722658 C16.996,34.9722658 18.4076444,33.5650886 18.4076444,31.8353797 L18.4076444,19.7596709 C18.4076444,19.2708228 18.2947556,18.8077595 18.0937778,18.3949367 L21.8348444,18.3949367 C21.6338667,18.8077595 21.5209778,19.2708228 21.5209778,19.7596709 L21.5209778,31.8353797 C21.5209778,33.5650886 22.9327111,34.9722658 24.6678222,34.9722658 L36.7817778,34.9722658 C38.5169778,34.9722658 39.9286222,33.5650886 39.9286222,31.8353797 L39.9286222,19.7596709 C39.9288,18.029962 38.5170667,16.6227848 36.7819556,16.6227848 Z M12.5383111,15.2580506 L12.5383111,3.18234177 C12.5383111,2.42979747 13.1524444,1.81760759 13.9073778,1.81760759 L26.0214222,1.81760759 C26.7762667,1.81760759 27.3904,2.42979747 27.3904,3.18234177 L27.3904,15.2580506 C27.3904,16.0105949 26.7762667,16.6227848 26.0214222,16.6227848 L13.9073778,16.6227848 C13.1524444,16.6227848 12.5383111,16.0105063 12.5383111,15.2580506 Z M16.6299556,19.7596709 L16.6299556,31.8353797 C16.6299556,32.5879241 16.0158222,33.2001139 15.2608889,33.2001139 L3.14684444,33.2001139 C2.39191111,33.2001139 1.77777778,32.5879241 1.77777778,31.8353797 L1.77777778,19.7596709 C1.77777778,19.0071266 2.39191111,18.3949367 3.14684444,18.3949367 L15.2608,18.3949367 C16.0158222,18.3949367 16.6299556,19.0071266 16.6299556,19.7596709 Z M38.1510222,31.8353797 C38.1510222,32.5879241 37.5368889,33.2001139 36.7819556,33.2001139 L24.668,33.2001139 C23.9130667,33.2001139 23.2989333,32.5879241 23.2989333,31.8353797 L23.2989333,19.7596709 C23.2989333,19.0071266 23.9130667,18.3949367 24.668,18.3949367 L36.7819556,18.3949367 C37.5368889,18.3949367 38.1510222,19.0071266 38.1510222,19.7596709 L38.1510222,31.8353797 Z" id="Shape"></path>
                <path d="M32.7127111,25.3740253 C32.9900444,24.9386962 33.1514667,24.4231772 33.1514667,23.870443 C33.1514667,22.3192785 31.8855111,21.0572405 30.3293333,21.0572405 L29.2316444,21.0572405 C28.7408,21.0572405 28.3427556,21.4539367 28.3427556,21.9433165 L28.3427556,25.7975696 L28.3427556,29.6518228 C28.3427556,30.1412025 28.7408,30.5378987 29.2316444,30.5378987 L31.1648889,30.5378987 C32.7210667,30.5378987 33.9870222,29.2759494 33.9870222,27.7246962 C33.9870222,26.7428354 33.4795556,25.8774051 32.7127111,25.3740253 Z M30.1205333,22.8293038 L30.3293333,22.8293038 C30.9052444,22.8293038 31.3736889,23.2963544 31.3736889,23.8703544 C31.3736889,24.444443 30.9051556,24.9114051 30.3293333,24.9114051 L30.1205333,24.9114051 L30.1205333,22.8293038 Z M31.1648889,28.7656582 L30.1205333,28.7656582 L30.1205333,26.683557 L31.1648889,26.683557 C31.7408,26.683557 32.2092444,27.1506076 32.2092444,27.7246076 C32.2092444,28.2986076 31.7408,28.7656582 31.1648889,28.7656582 Z" id="Shape"></path>
                <path d="M8.07719932,22.5577662 L10.7600791,22.5577662 C11.1744379,22.5577662 11.510342,22.2218621 11.510342,21.8075034 L11.510342,21.8075034 C11.510342,21.3931446 11.1744379,21.0572405 10.7600791,21.0572405 L7.23164444,21.0572405 C6.7408,21.0572405 6.34275556,21.4539367 6.34275556,21.9433165 L6.34275556,25.7975696 L6.34275556,29.6518228 C6.34275556,30.1412025 6.7408,30.5378987 7.23164444,30.5378987 L9.16488889,30.5378987 C10.7210667,30.5378987 11.9870222,29.2759494 11.9870222,27.7246962 C11.9870222,26.7428354 11.4795556,25.8774051 10.7127111,25.3740253 C10.5223541,25.2663879 9.97992092,24.9250839 9.16488889,24.9257763 C8.79083724,24.926094 8.58719967,24.9257763 8.07719932,24.9257763 L8.07719932,22.5577662 Z M9.16488889,28.7656582 L8.12053333,28.7656582 L8.12053333,26.683557 L9.16488889,26.683557 C9.7408,26.683557 10.2092444,27.1506076 10.2092444,27.7246076 C10.2092444,28.2986076 9.7408,28.7656582 9.16488889,28.7656582 Z" id="Shape-Copy"></path>
                <path d="M17.7419556,13.9322152 C18.2173333,14.0547595 18.7021333,13.7699747 18.8251556,13.2962785 L19.1147556,12.18 L20.8141333,12.18 L21.1037333,13.2962785 C21.2073778,13.6957215 21.5682667,13.9607468 21.9637333,13.9607468 C22.0373333,13.9607468 22.1122667,13.9515316 22.1869333,13.9323038 C22.6622222,13.8097595 22.9479111,13.3264051 22.8249778,12.8526203 L20.8250667,5.14411392 C20.7235556,4.75308861 20.3696889,4.47991139 19.9644444,4.47991139 C19.5592,4.47991139 19.2053333,4.75308861 19.1038222,5.14411392 L17.1039111,12.8526203 C16.9809778,13.3263165 17.2666667,13.8097595 17.7419556,13.9322152 Z M20.3543111,10.4078481 L19.5744,10.4078481 L19.9643556,8.90479747 L20.3543111,10.4078481 Z" id="Shape"></path>
            </g>
        </g>
    </g>
</svg>