<?xml version="1.0" encoding="UTF-8"?>
<svg width="28px" height="35px" viewBox="0 0 28 35" version="1.1" xmlns="http://www.w3.org/2000/svg" xmlns:xlink="http://www.w3.org/1999/xlink">
    <!-- Generator: Sketch 51 (57462) - http://www.bohemiancoding.com/sketch -->
    <title>book</title>
    <desc>Created with Sketch.</desc>
    <defs></defs>
    <g id="Page-1" stroke="none" stroke-width="1" fill="none" fill-rule="evenodd">
        <g id="Android" transform="translate(-243.000000, -205.000000)" fill="#FFFFFF" fill-rule="nonzero">
            <g id="book" transform="translate(243.000000, 205.000000)">
                <path d="M26.9917098,9.08847737 L5.54196891,9.08847737 C3.55440415,9.08847737 1.92953368,7.48251029 1.92953368,5.50205761 C1.92953368,3.52880658 3.54715026,1.91563786 5.54196891,1.91563786 L26.9989637,1.91563786 C27.5357513,1.91563786 27.9637306,1.48353909 27.9637306,0.95781893 C27.9637306,0.424897119 27.5284974,0 26.9989637,0 L5.54196891,0 C2.4880829,-5.11707732e-16 0,2.47016461 0,5.50205761 L0,29.4619342 C0,32.4938272 2.4880829,34.9639918 5.54196891,34.9639918 L26.9989637,34.9639918 C27.5357513,34.9639918 27.9637306,34.531893 27.9637306,34.0061728 L27.9637306,10.0462963 C27.9564767,9.52057613 27.5284974,9.08847737 26.9917098,9.08847737 Z M26.026943,33.0483539 L5.54196891,33.0483539 C3.55440415,33.0483539 1.92953368,31.4423868 1.92953368,29.4619342 L1.92953368,9.67901235 C2.9015544,10.5072016 4.16373057,11.0113169 5.54196891,11.0113169 L26.026943,11.0113169 L26.026943,33.0483539 Z" id="Shape"></path>
                <path d="M5.84663212,4.63065844 C5.30984456,4.63065844 4.88186528,5.0627572 4.88186528,5.58847737 C4.88186528,6.11419753 5.31709845,6.5462963 5.84663212,6.5462963 L23.9668394,6.5462963 C24.5036269,6.5462963 24.9316062,6.11419753 24.9316062,5.58847737 C24.9316062,5.0627572 24.4963731,4.63065844 23.9668394,4.63065844 L5.84663212,4.63065844 Z" id="Shape"></path>
                <path d="M9.24145078,28.8569959 C9.35025907,28.8930041 9.45906736,28.9146091 9.56787565,28.9146091 C9.96683938,28.9146091 10.3367876,28.6697531 10.4746114,28.2808642 L11.6497409,25.0185185 L16.1761658,25.0185185 C16.2124352,25.0185185 16.2559585,25.0185185 16.292228,25.0113169 L17.4673575,28.2808642 C17.6051813,28.6697531 17.9823834,28.9146091 18.3740933,28.9146091 C18.4829016,28.9146091 18.5917098,28.8930041 18.7005181,28.8569959 C19.2010363,28.6769547 19.4621762,28.1296296 19.280829,27.632716 L14.8849741,15.3971193 C14.8777202,15.3683128 14.8632124,15.3395062 14.8487047,15.3106996 C14.8414508,15.2962963 14.8341969,15.281893 14.826943,15.2674897 C14.8196891,15.2530864 14.8124352,15.2386831 14.8051813,15.2242798 C14.7979275,15.2098765 14.7834197,15.1954733 14.7761658,15.1738683 C14.7689119,15.1666667 14.761658,15.1522634 14.7544041,15.1450617 C14.7471503,15.1306584 14.7326425,15.1162551 14.7181347,15.1018519 C14.7108808,15.0946502 14.7036269,15.0802469 14.6891192,15.0730453 C14.6818653,15.058642 14.6673575,15.0514403 14.6528497,15.037037 C14.638342,15.0226337 14.6310881,15.0154321 14.6165803,15.0010288 C14.6093264,14.9938272 14.5948187,14.9866255 14.5875648,14.9722222 C14.573057,14.9578189 14.5585492,14.9506173 14.5440415,14.936214 C14.5367876,14.9290123 14.5222798,14.9218107 14.5150259,14.9146091 C14.5005181,14.9074074 14.4860104,14.8930041 14.4715026,14.8858025 C14.4569948,14.8786008 14.442487,14.8713992 14.4279793,14.8641975 C14.4134715,14.8569959 14.3989637,14.8497942 14.384456,14.8425926 C14.3554404,14.8281893 14.3264249,14.813786 14.2974093,14.8065844 L14.2901554,14.8065844 C14.2611399,14.7993827 14.2321244,14.7921811 14.2031088,14.7849794 C14.188601,14.7849794 14.1813472,14.7777778 14.1668394,14.7777778 C14.1450777,14.7705761 14.1305699,14.7705761 14.1088083,14.7633745 C14.0943005,14.7633745 14.0797927,14.7633745 14.065285,14.7561728 C14.0507772,14.7561728 14.0290155,14.7489712 14.0145078,14.7489712 C14,14.7489712 13.9854922,14.7489712 13.9709845,14.7489712 C13.9564767,14.7489712 13.9419689,14.7489712 13.9202073,14.7489712 C13.9056995,14.7489712 13.8839378,14.7489712 13.8694301,14.7561728 C13.8549223,14.7561728 13.8404145,14.7561728 13.8259067,14.7633745 C13.8041451,14.7633745 13.7896373,14.7705761 13.7678756,14.7777778 C13.7533679,14.7777778 13.746114,14.7849794 13.7316062,14.7849794 C13.7025907,14.7921811 13.6735751,14.7993827 13.6518135,14.8065844 L13.6445596,14.8065844 C13.615544,14.813786 13.5865285,14.8281893 13.557513,14.8425926 C13.5430052,14.8497942 13.5284974,14.8569959 13.5139896,14.8641975 C13.4994819,14.8713992 13.4849741,14.8786008 13.4704663,14.8858025 C13.4559585,14.8930041 13.4414508,14.9074074 13.4196891,14.9146091 C13.4124352,14.9218107 13.3979275,14.9290123 13.3906736,14.936214 C13.3761658,14.9506173 13.361658,14.9578189 13.3471503,14.9722222 C13.3398964,14.9794239 13.3253886,14.9866255 13.3181347,15.0010288 C13.3036269,15.0154321 13.2963731,15.0226337 13.2818653,15.037037 C13.2673575,15.0514403 13.2601036,15.058642 13.2455959,15.0730453 C13.238342,15.0802469 13.2310881,15.0946502 13.2165803,15.1018519 C13.2020725,15.1162551 13.1948187,15.1306584 13.1803109,15.1450617 C13.173057,15.1522634 13.1658031,15.1666667 13.1585492,15.1738683 C13.1512953,15.1882716 13.1367876,15.2026749 13.1295337,15.2170782 C13.1222798,15.2314815 13.1150259,15.2458848 13.107772,15.2602881 C13.1005181,15.2746914 13.0932642,15.2890947 13.0860104,15.3034979 C13.0715026,15.3323045 13.0569948,15.3611111 13.0497409,15.3899177 L8.63937824,27.6255144 C8.47979275,28.1296296 8.74093264,28.6769547 9.24145078,28.8569959 Z M13.9782383,18.5658436 L15.6103627,23.1028807 L12.3388601,23.1028807 L13.9782383,18.5658436 Z" id="Shape"></path>
            </g>
        </g>
    </g>
</svg>