<svg xmlns="http://www.w3.org/2000/svg" width="32" height="19" viewBox="0 0 32 19">
    <path fill="#4A76A8" fill-rule="evenodd" d="M31.258 1.287C31.481.545 31.258 0 30.2 0h-3.5c-.89 0-1.3.47-1.523.99 0 0-1.78 4.338-4.301 7.156-.816.816-1.187 1.076-1.632 1.076-.222 0-.556-.26-.556-1.002V1.287C18.688.397 18.442 0 17.7 0h-5.5c-.556 0-.89.413-.89.804 0 .844 1.26 1.039 1.39 3.412V9.37c0 1.13-.204 1.335-.649 1.335-1.187 0-4.073-4.358-5.785-9.344C5.931.39 5.595 0 4.7 0H1.2C.2 0 0 .47 0 .99c0 .927 1.187 5.525 5.525 11.606C8.417 16.749 12.492 19 16.2 19c2.225 0 2.5-.5 2.5-1.361V14.5c0-1 .21-1.2.915-1.2.52 0 1.41.26 3.486 2.262C25.474 17.935 25.865 19 27.2 19h3.5c1 0 1.5-.5 1.212-1.487-.316-.983-1.45-2.41-2.953-4.101-.815-.964-2.039-2.003-2.41-2.522-.519-.667-.37-.964 0-1.557 0 0 4.264-6.007 4.71-8.046z"/>
</svg>
