
<svg version="1.1" id="Capa_1" xmlns="http://www.w3.org/2000/svg" xmlns:xlink="http://www.w3.org/1999/xlink" x="0px" y="0px"
	 viewBox="0 0 511.998 511.998" style="enable-background:new 0 0 511.998 511.998;" xml:space="preserve">
<g>
	<path style="fill:#DC691D;" d="M114.757,317.791c-3.505,0-6.815-2.092-8.201-5.552L61.792,200.316L17.028,312.239
		c-1.81,4.537-6.947,6.744-11.476,4.926c-4.528-1.81-6.727-6.947-4.917-11.476L53.6,173.277c1.342-3.354,4.581-5.552,8.192-5.552
		c3.61,0,6.859,2.198,8.192,5.552l52.965,132.411c1.81,4.529-0.388,9.666-4.917,11.476
		C116.964,317.597,115.851,317.791,114.757,317.791z"/>
	<path style="fill:#DC691D;" d="M503.173,317.791c-3.504,0-6.815-2.092-8.201-5.552l-44.773-111.923l-44.764,111.923
		c-1.818,4.528-6.938,6.727-11.476,4.926c-4.528-1.81-6.727-6.947-4.917-11.476l52.965-132.411c1.342-3.354,4.59-5.552,8.192-5.552
		s6.85,2.198,8.201,5.552l52.965,132.411c1.81,4.529-0.388,9.666-4.917,11.476C505.371,317.597,504.258,317.791,503.173,317.791z"/>
</g>
<g>
	<path style="fill:#AFB6BB;" d="M255.996,57.867c-6.462,0-12.447-1.863-17.655-4.899v61.792h35.31V52.968
		C268.442,56.005,262.466,57.867,255.996,57.867z"/>
	<rect x="238.341" y="132.415" style="fill:#AFB6BB;" width="35.31" height="317.788"/>
</g>
<path style="fill:#E7ECED;" d="M388.407,485.512H123.584v-26.509c0-9.737,7.892-17.628,17.628-17.628h229.575
	c9.728,0,17.62,7.892,17.62,17.628V485.512z"/>
<path style="fill:#AFB6BB;" d="M414.889,511.995H97.102v-17.681c0-9.737,7.892-17.628,17.628-17.628h282.54
	c9.728,0,17.62,7.892,17.62,17.628V511.995z"/>
<g>
	<circle style="fill:#E7ECED;" cx="255.996" cy="35.313" r="35.31"/>
	<path style="fill:#E7ECED;" d="M494.336,141.242h-97.102l-52.965-35.31h-88.274h-88.274l-52.965,35.31H17.655
		C7.909,141.242,0,149.143,0,158.897c0,9.754,7.909,17.655,17.655,17.655h105.929l52.965-35.31h79.447h79.447l52.965,35.31h105.929
		c9.745,0,17.655-7.901,17.655-17.655C511.991,149.143,504.091,141.242,494.336,141.242z"/>
</g>
<g>
	<path style="fill:#EBBA16;" d="M61.792,397.238C27.718,397.238,0,369.511,0,335.446v-26.482c0-4.882,3.955-8.827,8.827-8.827
		h105.929c4.873,0,8.827,3.946,8.827,8.827v26.482C123.584,369.511,95.866,397.238,61.792,397.238z"/>
	<path style="fill:#EBBA16;" d="M450.199,397.238c-34.074,0-61.792-27.727-61.792-61.792v-26.482c0-4.882,3.955-8.827,8.827-8.827
		h105.929c4.873,0,8.827,3.946,8.827,8.827v26.482C511.991,369.511,484.273,397.238,450.199,397.238z"/>
</g>
</svg>
