<svg xmlns="http://www.w3.org/2000/svg" viewBox="0 0 512.438 512.438" enable-background="new 0 0 512.438 512.438"><path d="M424 116.219h-40c-4.418 0-8 3.582-8 8v216h56v-216c0-4.418-3.582-8-8-8z" fill="#FF4F19"/><path d="M404 116.219h-20c-4.418 0-8 3.582-8 8v216h28v-224zM168.219 84.219h-48.219c-4.418 0-8 3.582-8 8v248h64.219v-248c0-4.418-3.582-8-8-8z" fill="#E3001E"/><path d="M168.219 84.219h-24.219v256h32.219v-248c0-4.418-3.582-8-8-8z" fill="#FF4F19"/><path d="M80 452.219c-2.977 0-5.781-1.668-7.156-4.422l-40-80c-1.977-3.953-.375-8.758 3.578-10.734 3.945-1.969 8.758-.375 10.734 3.578l24.844 49.691v-46.113c0-4.418 3.578-8 8-8s8 3.582 8 8v80c0 3.711-2.555 6.934-6.164 7.785-.609.145-1.227.215-1.836.215zM432.219 452.219c-.609 0-1.227-.07-1.836-.215-3.609-.852-6.164-4.074-6.164-7.785v-80c0-4.418 3.578-8 8-8s8 3.582 8 8v46.113l24.844-49.691c1.984-3.953 6.781-5.547 10.734-3.578 3.953 1.977 5.555 6.781 3.578 10.734l-40 80c-1.375 2.754-4.18 4.422-7.156 4.422z" fill="#868491"/><path d="M248 84.219h-16c-4.418 0-8 3.582-8 8v248h32v-248c0-4.418-3.582-8-8-8z" fill="#5D647F"/><path d="M368 84.219h-16c-4.418 0-8 3.582-8 8v248h32v-248c0-4.418-3.582-8-8-8z" fill="#4BB9EC"/><path d="M104 108.219h-16c-4.418 0-8 3.582-8 8v223.125c0 .483.392.875.875.875h31.125v-224c0-4.418-3.582-8-8-8z" fill="#FF9100"/><path d="M72 132.219h-24c-4.418 0-8 3.582-8 8v200h40v-200c0-4.418-3.582-8-8-8z" fill="#00C37A"/><path d="M464 100.219h-24c-4.418 0-8 3.582-8 8v232h40v-232c0-4.418-3.582-8-8-8z" fill="#5D647F"/><path d="M336 60.219h-40c-4.418 0-8 3.582-8 8v272h56v-272c0-4.418-3.582-8-8-8z" fill="#FF9100"/><path d="M280 116.219h-16c-4.418 0-8 3.582-8 8v216h32v-216c0-4.418-3.582-8-8-8z" fill="#00C37A"/><path d="M216 100.219h-32c-4.418 0-8 3.582-8 8v232h48v-232c0-4.418-3.582-8-8-8z" fill="#4BB9EC"/><path d="M504.438 372.219h-496.438c-4.418 0-8-3.582-8-8v-16c0-4.418 3.582-8 8-8h496.438c4.418 0 8 3.582 8 8v16c0 4.418-3.582 8-8 8z" fill="#E6BE8A"/><path fill="#5D647F" d="M112 108.219h32v16h-32z"/><path fill="#868491" d="M144 108.219h32v16h-32z"/><path fill="#5D647F" d="M112 300.219h32v16h-32z"/><path fill="#868491" d="M144 300.219h32v16h-32z"/><path fill="#00A077" d="M272.219 140.219h16v16h-16zM272.219 292.219h16v16h-16z"/><path fill="#FF9100" d="M376 140.219h28v16h-28zM376 292.219h28v16h-28z"/><path fill="#FFCD00" d="M404 140.219h28v16h-28zM404 292.219h28v16h-28z"/><path d="M176 108.219v232h24v-240h-16c-4.418 0-8 3.582-8 8z" fill="#009BCA"/><path d="M80 340.219h16v-232h-8c-4.418 0-8 3.582-8 8v224z" fill="#FF4F19"/><path d="M40 340.219h20v-208h-13.002c-3.865 0-6.998 3.133-6.998 6.998v201.002z" fill="#00A077"/><path d="M224 340.219h16v-256h-8c-4.418 0-8 3.582-8 8v248z" fill="#5C546A"/><path d="M256 340.219h16v-224h-8c-4.418 0-8 3.582-8 8v216z" fill="#00A077"/><path fill="#5D647F" d="M256 140.219h16v16h-16zM256 292.219h16v16h-16z"/><path d="M288 340.219h28v-280h-20c-4.418 0-8 3.582-8 8v272z" fill="#FF4F19"/><path d="M360 84.219h-8c-4.418 0-8 3.582-8 8v248h16v-256z" fill="#009BCA"/><path d="M452.22 100.219h-12.22c-4.418 0-8 3.582-8 8v232h20.22v-240z" fill="#5C546A"/><path d="M0 356.219v8c0 4.418 3.582 8 8 8h496.438c4.418 0 8-3.582 8-8v-8h-512.438z" fill="#C9A07C"/></svg>