<svg xmlns="http://www.w3.org/2000/svg" viewBox="0 0 511.998 511.998" width="512" height="512" enable-background="new 0 0 511.998 511.998"><circle cx="85.38" cy="124.966" r="33.482" fill="#70ea88"/><path d="M241.203 134.8c.305 17.03 14.195 30.744 31.298 30.744 17.103 0 30.994-13.714 31.298-30.744h-62.596zM511.257 278.721c-7.527-20.628-19.236-52.908-26.484-73.644h.001c-2.66-7.615-4.932-15.591-10.966-22.422-5.166-5.848-11.635-8.821-19.374-8.821h-42.064c-11.267 0-19.152 6.314-24.411 16.174-1.657 3.107-18.577 50.618-24.22 66.188-10.511-15.947-38.064-57.748-49.073-74.45-2.222-3.371-5.989-5.4-10.028-5.4h-50.517c-4.634 0-6.58-.239-9.468 1.069l-44.703 20.238-21.245-28.674c.673-4.048-.591-8.347-3.772-11.407-5.127-4.934-13.284-4.777-18.218.35l-25.348 26.345-25.569-6.114c-3.047-5.455-8.665-9.342-15.359-9.892l-34.485-2.835c-7.339-.604-14.325 2.999-18.14 9.24-11.836 14.114-21.955 26.177-33.223 39.612-1.853 2.21-2.911 4.978-3.006 7.861l-1.578 48.581c-.236 7.253 5.571 13.304 12.886 13.304 6.922 0 12.644-5.496 12.87-12.466l1.434-44.131 23.778-28.35-12.689 27.125-1.486 45.716c-.203 6.257-2.81 11.909-6.908 16.047l6.395 41.695-19.814 72.267c-2.258 8.236 2.588 16.742 10.824 19 8.217 2.258 16.739-2.576 19-10.823l20.685-75.445c.575-2.094.7-4.286.371-6.432l-6.603-43.048 7.314.601 17.003 46.358 4.878 74.882c.556 8.529 7.924 14.982 16.434 14.424 8.522-.556 14.979-7.912 14.424-16.434l-5.023-77.108c-.096-1.475-.404-2.93-.913-4.319l-14.484-39.49 6.508-79.181 25.649 6.133c4.5 1.074 9.152-.348 12.281-3.598l18.354-19.076 23.244 31.371c3.372 4.552 9.459 6.123 14.602 3.792l39.376-17.826.006 200.922c0 7.959 6.453 14.411 14.412 14.411s14.412-6.453 14.412-14.411v-115.193h6.222v115.191c0 7.959 6.453 14.411 14.412 14.411s14.412-6.453 14.412-14.411c0-197.736-.262-74.504-.262-197.398 6.361 9.649 45.789 69.469 51.933 78.788 3.453 4.375 6.343 7.014 11.002 7.014 4.952-.001 9.134-1.514 11.403-7.976 6.03-17.173 18.058-49.713 24.127-66.935-.629 5.146.819-2.85-10.95 57.914l-6.294 32.494c-.382 1.977.138 4.021 1.418 5.575 1.281 1.554 3.189 2.46 5.202 2.46h9.264v88.065c0 8.046 6.523 14.568 14.569 14.568 8.046 0 14.569-6.522 14.569-14.568v-88.065h6.291v88.065c0 8.046 6.523 14.568 14.569 14.568s14.569-6.522 14.569-14.568v-88.065h9.264c2.014 0 3.924-.9 5.205-2.456 1.282-1.555 1.8-3.6 1.416-5.579-18.651-96.294-16.592-85.074-17.244-90.406 9.723 27.524 23.958 66.471 24.127 66.933 2.301 6.295 9.271 9.539 15.571 7.233 6.299-2.3 9.537-9.272 7.235-15.568zM324.897 115.809h-23.652c-3.991-10.21-13.105-17.845-24.185-19.748l.047-.468c0-2.804-2.273-5.077-5.077-5.077-2.803 0-5.077 2.273-5.077 5.077l.034.343c-15.338 2.255-27.113 15.466-27.113 31.431 0 0 82.798-.431 85.023-.431 3.072 0 5.564-2.492 5.564-5.564s-2.492-5.563-5.564-5.563zM501.377 164.122c-6.899-14.184-14.984-19.296-19.89-21.747-2.885-1.441-6.133-2.008-9.247-.809-.665.257-1.323.595-1.971 1.023l.504-1.183c.805-1.889-.074-4.071-1.963-4.875-1.617-.691-3.446-.137-4.444 1.222.129-1.156.202-2.329.202-3.519 0-17.293-14.02-31.313-31.313-31.313s-31.313 14.02-31.313 31.313c0 1.191.072 2.363.202 3.519-.998-1.358-2.826-1.909-4.443-1.222-1.889.805-2.768 2.987-1.963 4.875l.504 1.183c-.648-.427-1.306-.766-1.972-1.023-3.115-1.198-6.363-.633-9.247.809-4.906 2.451-12.991 7.565-19.89 21.747-.345.708-.232 1.553.286 2.145.519.592 1.341.818 2.089.574 12.202-4.003 24.554-.457 29.367-2.861 2.372-1.185 4.123-3.118 5.112-5.37.197-.449.353-.913.489-1.384l.541 1.272c.602 1.414 1.976 2.261 3.422 2.261.486 0 .979-.096 1.455-.298 1.889-.805 2.768-2.987 1.963-4.875l-.464-1.088c5.744 6.756 14.3 11.048 23.862 11.048 9.563 0 18.119-4.292 23.863-11.048l-.464 1.088c-.805 1.889.074 4.071 1.963 4.875.476.202.969.298 1.455.298 1.445 0 2.819-.848 3.422-2.261l.541-1.272c.136.471.292.935.489 1.384.989 2.252 2.74 4.185 5.112 5.37 4.813 2.404 17.167-1.142 29.367 2.861.748.246 1.57.019 2.088-.574.518-.592.63-1.438.286-2.145z" fill="#70ea88"/></svg>