<?xml version="1.0" encoding="iso-8859-1"?>
<!-- Generator: Adobe Illustrator 19.0.0, SVG Export Plug-In . SVG Version: 6.00 Build 0)  -->
<svg version="1.1" id="Capa_1" xmlns="http://www.w3.org/2000/svg" xmlns:xlink="http://www.w3.org/1999/xlink" x="0px" y="0px"
	 viewBox="0 0 208.212 208.212" style="enable-background:new 0 0 208.212 208.212;" xml:space="preserve">
<g>
	<g>
		<g>
			<path d="M44.562,97.089c-13.594,0-24.653,11.057-24.653,24.651c0,13.594,11.059,24.651,24.653,24.651
				c13.594,0,24.651-11.057,24.651-24.651C69.213,108.146,58.155,97.089,44.562,97.089z M44.562,139.564
				c-9.829,0-17.826-7.997-17.826-17.824s7.997-17.824,17.826-17.824s17.824,7.997,17.824,17.824S54.391,139.564,44.562,139.564z"/>
			<path d="M44.562,81.918c-23.63,0-42.856,19.226-42.856,42.856c0,9.723,6.828,24.849,20.299,44.962
				c9.841,14.691,19.821,26.868,19.92,26.989c0.647,0.789,1.616,1.246,2.637,1.246s1.99-0.457,2.637-1.248
				c0.099-0.121,10.08-12.298,19.92-26.989c13.471-20.111,20.299-35.239,20.299-44.96C87.418,101.144,68.192,81.918,44.562,81.918z
				 M44.562,189.116C32.486,173.865,8.532,140.39,8.532,124.774c0-19.866,16.164-36.029,36.029-36.029
				c19.867,0,36.029,16.164,36.029,36.029C80.591,140.39,56.64,173.863,44.562,189.116z"/>
		</g>
	</g>
</g>
<g>
	<g>
		<g>
			<path d="M160.615,0c-18.195,0-32.997,14.802-32.997,32.995c0,7.465,5.171,18.97,15.369,34.195
				c7.405,11.054,14.684,19.937,14.991,20.309c0.649,0.788,1.615,1.246,2.637,1.246c1.022,0,1.988-0.457,2.637-1.246
				c0.305-0.37,7.586-9.254,14.99-20.309c10.199-15.225,15.369-26.73,15.369-34.195C193.61,14.802,178.808,0,160.615,0z
				 M160.615,79.874c-9.184-11.711-26.17-35.681-26.17-46.88c0-14.43,11.74-26.168,26.17-26.168s26.168,11.738,26.168,26.168
				C186.784,44.194,169.799,68.164,160.615,79.874z"/>
			<path d="M160.615,11.377c-10.667,0-19.343,8.677-19.343,19.342s8.677,19.342,19.343,19.342c10.665,0,19.342-8.677,19.342-19.342
				S171.28,11.377,160.615,11.377z M160.615,43.233c-6.902,0-12.517-5.615-12.517-12.515c0-6.9,5.615-12.515,12.517-12.515
				c6.9,0,12.515,5.615,12.515,12.515C173.13,37.618,167.515,43.233,160.615,43.233z"/>
		</g>
	</g>
</g>
<g>
	<g>
		<g>
			<path d="M109.226,143.358h5.608c1.884,0,3.413-1.529,3.413-3.413c0-1.884-1.529-3.413-3.413-3.413h-5.608
				c-3.302,0-6.548,0.87-9.392,2.517c-1.632,0.944-2.188,3.033-1.244,4.663c0.633,1.094,1.78,1.703,2.958,1.703
				c0.58,0,1.171-0.148,1.708-0.459C105.06,143.91,107.125,143.358,109.226,143.358z"/>
			<path d="M145.554,139.945c0-1.884-1.529-3.413-3.413-3.413h-13.653c-1.884,0-3.413,1.529-3.413,3.413
				c0,1.884,1.529,3.413,3.413,3.413h13.653C144.026,143.358,145.554,141.829,145.554,139.945z"/>
			<path d="M120.2,170.665h-10.974c-0.7,0-1.399-0.06-2.079-0.177c-1.852-0.328-3.625,0.918-3.949,2.773
				c-0.324,1.855,0.917,3.625,2.773,3.949c1.065,0.186,2.161,0.282,3.255,0.282H120.2c1.884,0,3.413-1.529,3.413-3.413
				S122.084,170.665,120.2,170.665z"/>
			<path d="M97.279,158.718v-3.413c0-0.637,0.049-1.271,0.15-1.889c0.295-1.862-0.973-3.611-2.835-3.908
				c-1.855-0.292-3.611,0.973-3.908,2.835c-0.155,0.971-0.234,1.968-0.234,2.963v3.413c0,3.197,0.819,6.356,2.367,9.132
				c0.625,1.121,1.787,1.751,2.985,1.751c0.563,0,1.133-0.138,1.661-0.432c1.645-0.918,2.236-2.999,1.318-4.644
				C97.8,162.761,97.279,160.753,97.279,158.718z"/>
			<path d="M119.22,201.385h-13.653c-1.884,0-3.413,1.529-3.413,3.413s1.529,3.413,3.413,3.413h13.653
				c1.886,0,3.413-1.529,3.413-3.413S121.104,201.385,119.22,201.385z"/>
			<path d="M158.719,98.985h13.653c1.884,0,3.413-1.529,3.413-3.413s-1.529-3.413-3.413-3.413h-13.653
				c-1.884,0-3.413,1.529-3.413,3.413S156.835,98.985,158.719,98.985z"/>
			<path d="M186.026,98.985h1.707c3.157,0,6.134,1.219,8.38,3.432c0.664,0.655,1.529,0.981,2.394,0.981
				c0.882,0,1.765-0.34,2.432-1.019c1.324-1.343,1.307-3.504-0.036-4.826c-3.533-3.478-8.209-5.395-13.17-5.395h-1.707
				c-1.884,0-3.413,1.529-3.413,3.413S184.142,98.985,186.026,98.985z"/>
			<path d="M91.913,201.385H78.26c-1.884,0-3.413,1.529-3.413,3.413s1.529,3.413,3.413,3.413h13.653
				c1.886,0,3.413-1.529,3.413-3.413S93.798,201.385,91.913,201.385z"/>
			<path d="M64.607,201.385H50.953c-1.884,0-3.413,1.529-3.413,3.413s1.529,3.413,3.413,3.413h13.653
				c1.886,0,3.413-1.529,3.413-3.413S66.491,201.385,64.607,201.385z"/>
			<path d="M173.833,201.385H160.18c-1.884,0-3.413,1.529-3.413,3.413s1.529,3.413,3.413,3.413h13.653
				c1.886,0,3.413-1.529,3.413-3.413S175.718,201.385,173.833,201.385z"/>
			<path d="M189.321,171.341c-1.826-0.51-3.698,0.567-4.198,2.383c-0.5,1.818,0.567,3.697,2.383,4.198
				c3.429,0.945,6.33,3.461,7.762,6.729c0.561,1.28,1.813,2.045,3.128,2.045c0.457,0,0.922-0.094,1.367-0.288
				c1.725-0.758,2.512-2.77,1.756-4.497C199.239,176.703,194.791,172.851,189.321,171.341z"/>
			<path d="M198.133,140.215c1.568-1.044,1.992-3.164,0.947-4.733c-1.046-1.57-3.164-1.995-4.733-0.947
				c-1.959,1.307-4.246,1.997-6.615,1.997h-4.632c-1.884,0-3.413,1.529-3.413,3.413c0,1.884,1.529,3.413,3.413,3.413h4.632
				C191.453,143.358,195.049,142.271,198.133,140.215z"/>
			<path d="M199.543,193.446c-1.679-0.87-3.734-0.208-4.598,1.464c-1.666,3.22-4.644,5.489-8.173,6.222
				c-1.845,0.382-3.031,2.191-2.647,4.036c0.334,1.613,1.754,2.719,3.338,2.719c0.23,0,0.463-0.024,0.698-0.072
				c5.553-1.155,10.235-4.717,12.846-9.772C201.874,196.369,201.217,194.311,199.543,193.446z"/>
			<path d="M146.527,201.385h-13.653c-1.884,0-3.413,1.529-3.413,3.413s1.529,3.413,3.413,3.413h13.653
				c1.886,0,3.413-1.529,3.413-3.413S148.411,201.385,146.527,201.385z"/>
			<path d="M203.092,108.979c-1.884,0-3.413,1.529-3.413,3.413v12.191c0,0.386-0.017,0.765-0.053,1.14
				c-0.176,1.877,1.203,3.54,3.081,3.717c0.108,0.01,0.215,0.015,0.321,0.015c1.741,0,3.229-1.326,3.395-3.094
				c0.055-0.585,0.084-1.178,0.084-1.777v-12.192C206.506,110.508,204.977,108.979,203.092,108.979z"/>
			<path d="M174.813,170.665H161.16c-1.884,0-3.413,1.529-3.413,3.413s1.529,3.413,3.413,3.413h13.653
				c1.884,0,3.413-1.529,3.413-3.413S176.697,170.665,174.813,170.665z"/>
			<path d="M147.506,170.665h-13.653c-1.884,0-3.413,1.529-3.413,3.413s1.529,3.413,3.413,3.413h13.653
				c1.884,0,3.413-1.529,3.413-3.413S149.39,170.665,147.506,170.665z"/>
			<path d="M172.861,139.945c0-1.884-1.529-3.413-3.413-3.413h-13.653c-1.884,0-3.413,1.529-3.413,3.413
				c0,1.884,1.529,3.413,3.413,3.413h13.653C171.333,143.358,172.861,141.829,172.861,139.945z"/>
		</g>
	</g>
</g>
</svg>
