<svg id="Capa_1" xmlns="http://www.w3.org/2000/svg" xmlns:xlink="http://www.w3.org/1999/xlink" x="0px" y="0px" viewBox="0 0 208.212 208.212" style="enable-background:new 0 0 208.212 208.212"><g><g><g><path d="M44.562 97.089c-13.594 0-24.653 11.057-24.653 24.651s11.059 24.651 24.653 24.651 24.651-11.057 24.651-24.651-11.058-24.651-24.651-24.651zm0 42.475c-9.829 0-17.826-7.997-17.826-17.824s7.997-17.824 17.826-17.824 17.824 7.997 17.824 17.824-7.995 17.824-17.824 17.824z"/><path d="M44.562 81.918c-23.63 0-42.856 19.226-42.856 42.856 0 9.723 6.828 24.849 20.299 44.962 9.841 14.691 19.821 26.868 19.92 26.989a3.411 3.411 0 0 0 5.274-.002c.099-.121 10.08-12.298 19.92-26.989 13.471-20.111 20.299-35.239 20.299-44.96 0-23.63-19.226-42.856-42.856-42.856zm0 107.198c-12.076-15.251-36.03-48.726-36.03-64.342 0-19.866 16.164-36.029 36.029-36.029 19.867 0 36.029 16.164 36.029 36.029.001 15.616-23.95 49.089-36.028 64.342z"/></g></g></g><g><g><g><path d="M160.615 0c-18.195 0-32.997 14.802-32.997 32.995 0 7.465 5.171 18.97 15.369 34.195 7.405 11.054 14.684 19.937 14.991 20.309a3.416 3.416 0 0 0 5.274 0c.305-.37 7.586-9.254 14.99-20.309 10.199-15.225 15.369-26.73 15.369-34.195C193.61 14.802 178.808 0 160.615 0zm0 79.874c-9.184-11.711-26.17-35.681-26.17-46.88 0-14.43 11.74-26.168 26.17-26.168s26.168 11.738 26.168 26.168c.001 11.2-16.984 35.17-26.168 46.88z"/><path d="M160.615 11.377c-10.667 0-19.343 8.677-19.343 19.342s8.677 19.342 19.343 19.342c10.665 0 19.342-8.677 19.342-19.342s-8.677-19.342-19.342-19.342zm0 31.856c-6.902 0-12.517-5.615-12.517-12.515s5.615-12.515 12.517-12.515c6.9 0 12.515 5.615 12.515 12.515s-5.615 12.515-12.515 12.515z"/></g></g></g><g><g><g><path d="M109.226 143.358h5.608a3.414 3.414 0 0 0 0-6.826h-5.608c-3.302 0-6.548.87-9.392 2.517a3.412 3.412 0 1 0 3.422 5.907 11.914 11.914 0 0 1 5.97-1.598zM145.554 139.945a3.414 3.414 0 0 0-3.413-3.413h-13.653a3.414 3.414 0 0 0 0 6.826h13.653a3.414 3.414 0 0 0 3.413-3.413zM120.2 170.665h-10.974c-.7 0-1.399-.06-2.079-.177a3.412 3.412 0 0 0-1.176 6.722 18.98 18.98 0 0 0 3.255.282H120.2a3.414 3.414 0 0 0 0-6.827zM97.279 158.718v-3.413c0-.637.049-1.271.15-1.889a3.415 3.415 0 0 0-2.835-3.908 3.421 3.421 0 0 0-3.908 2.835 18.856 18.856 0 0 0-.234 2.963v3.413c0 3.197.819 6.356 2.367 9.132a3.411 3.411 0 0 0 4.646 1.319 3.415 3.415 0 0 0 1.318-4.644 11.962 11.962 0 0 1-1.504-5.808zM119.22 201.385h-13.653a3.414 3.414 0 0 0 0 6.826h13.653a3.413 3.413 0 1 0 0-6.826zM158.719 98.985h13.653a3.414 3.414 0 0 0 0-6.826h-13.653a3.414 3.414 0 0 0 0 6.826zM186.026 98.985h1.707a11.87 11.87 0 0 1 8.38 3.432 3.397 3.397 0 0 0 2.394.981 3.4 3.4 0 0 0 2.432-1.019 3.411 3.411 0 0 0-.036-4.826 18.663 18.663 0 0 0-13.17-5.395h-1.707a3.414 3.414 0 0 0 0 6.827zM91.913 201.385H78.26a3.414 3.414 0 0 0 0 6.826h13.653a3.413 3.413 0 1 0 0-6.826zM64.607 201.385H50.953a3.414 3.414 0 0 0 0 6.826h13.653a3.413 3.413 0 0 0 .001-6.826zM173.833 201.385H160.18a3.414 3.414 0 0 0 0 6.826h13.653a3.413 3.413 0 1 0 0-6.826zM189.321 171.341a3.403 3.403 0 0 0-4.198 2.383 3.415 3.415 0 0 0 2.383 4.198c3.429.945 6.33 3.461 7.762 6.729a3.415 3.415 0 0 0 4.495 1.757 3.416 3.416 0 0 0 1.756-4.497 18.697 18.697 0 0 0-12.198-10.57zM198.133 140.215a3.414 3.414 0 0 0-3.786-5.68 11.876 11.876 0 0 1-6.615 1.997H183.1a3.414 3.414 0 0 0 0 6.826h4.632c3.721 0 7.317-1.087 10.401-3.143zM199.543 193.446a3.408 3.408 0 0 0-4.598 1.464c-1.666 3.22-4.644 5.489-8.173 6.222a3.412 3.412 0 1 0 1.389 6.683c5.553-1.155 10.235-4.717 12.846-9.772a3.41 3.41 0 0 0-1.464-4.597zM146.527 201.385h-13.653a3.414 3.414 0 0 0 0 6.826h13.653a3.413 3.413 0 1 0 0-6.826zM203.092 108.979a3.414 3.414 0 0 0-3.413 3.413v12.191c0 .386-.017.765-.053 1.14a3.414 3.414 0 0 0 6.797.638c.055-.585.084-1.178.084-1.777v-12.192a3.416 3.416 0 0 0-3.415-3.413zM174.813 170.665H161.16a3.414 3.414 0 0 0 0 6.826h13.653a3.414 3.414 0 0 0 0-6.826zM147.506 170.665h-13.653a3.414 3.414 0 0 0 0 6.826h13.653a3.414 3.414 0 0 0 0-6.826zM172.861 139.945a3.414 3.414 0 0 0-3.413-3.413h-13.653a3.414 3.414 0 0 0 0 6.826h13.653a3.414 3.414 0 0 0 3.413-3.413z"/></g></g></g></svg>