<?xml version="1.0" standalone="no"?>
<!DOCTYPE svg PUBLIC "-//W3C//DTD SVG 20010904//EN"
 "http://www.w3.org/TR/2001/REC-SVG-20010904/DTD/svg10.dtd">
<svg version="1.0" xmlns="http://www.w3.org/2000/svg"
 width="576.000000pt" height="480.000000pt" viewBox="0 0 576.000000 480.000000"
 preserveAspectRatio="xMidYMid meet">
<metadata>
Created by potrace 1.15, written by Peter Selinger 2001-2017
</metadata>
<g transform="translate(0.000000,480.000000) scale(0.100000,-0.100000)"
fill="#000000" stroke="none">
<path d="M1540 3843 c0 -13 -3 -14 -8 -6 -5 8 -21 10 -45 6 -36 -6 -62 -23
-35 -23 8 0 6 -5 -5 -11 -9 -6 -25 -8 -35 -5 -10 4 -27 -1 -38 -10 -18 -14
-18 -15 4 -4 37 18 38 4 2 -15 -18 -9 -53 -38 -78 -63 -25 -26 -41 -38 -35
-27 8 15 7 23 -4 34 -13 12 -14 11 -8 -9 5 -14 3 -20 -3 -16 -6 4 -8 -2 -4
-16 3 -14 2 -19 -6 -14 -15 9 -15 1 -2 -25 8 -14 7 -19 -2 -20 -7 -1 -20 -2
-28 -3 -8 0 -14 -7 -12 -13 1 -10 -30 -13 -133 -13 -101 0 -135 -3 -135 -12 0
-9 -3 -9 -9 1 -5 8 -7 20 -4 28 3 8 -2 13 -16 13 -16 0 -21 -7 -22 -27 -2 -25
-2 -26 -6 -5 -3 16 -9 22 -20 18 -9 -4 -23 -1 -31 6 -13 11 -14 11 -8 0 4 -7
2 -19 -4 -27 -15 -18 -7 -19 23 -5 21 10 21 10 2 -2 -11 -7 -37 -31 -59 -52
-28 -29 -35 -33 -26 -15 7 13 18 31 24 40 6 8 -3 0 -20 -19 -22 -24 -36 -32
-45 -26 -12 6 -12 5 -1 -8 7 -8 10 -22 6 -31 -4 -11 2 -17 18 -20 21 -4 20 -4
-4 -6 -21 -1 -28 -6 -28 -22 0 -14 5 -19 13 -16 8 3 20 1 28 -4 10 -6 10 -9 2
-9 -10 0 -13 -210 -15 -990 -3 -874 -1 -990 12 -990 13 0 13 -2 1 -9 -8 -5
-20 -7 -28 -4 -8 3 -13 -2 -13 -16 0 -13 6 -21 18 -21 12 0 14 -2 4 -8 -15
-10 -6 -88 11 -99 6 -4 7 4 3 23 -11 41 -1 28 22 -31 11 -27 23 -59 27 -69 7
-15 5 -17 -6 -11 -8 5 -11 5 -6 -1 5 -5 12 -9 17 -9 10 0 97 -97 98 -110 0 -5
11 -16 24 -24 21 -12 21 -12 -2 9 -28 24 -26 24 50 -11 30 -14 66 -31 80 -37
25 -11 24 -11 -4 -5 -18 4 -27 2 -23 -4 11 -17 89 -26 99 -11 6 10 8 8 8 -4 0
-11 8 -18 20 -18 15 0 20 7 21 28 1 15 3 20 5 12 4 -13 215 -15 1834 -12 1452
2 1830 5 1830 15 0 8 3 8 9 -2 5 -8 7 -20 4 -28 -3 -8 2 -13 16 -13 16 0 21 7
22 28 2 24 2 25 6 4 3 -16 9 -22 20 -18 9 4 23 1 31 -6 13 -11 14 -11 8 0 -5
8 -1 21 11 34 l18 21 -35 -17 c-19 -9 -26 -11 -15 -4 25 17 76 68 93 93 7 11
5 4 -4 -15 l-17 -35 21 18 c13 12 26 16 34 11 11 -6 11 -5 0 8 -7 8 -10 22 -6
31 4 11 -2 17 -18 20 -21 4 -20 4 5 6 20 1 27 6 27 22 0 14 -5 19 -13 16 -8
-3 -20 -1 -28 4 -10 6 -10 9 -1 9 18 0 18 2460 0 2460 -9 0 -9 3 1 9 8 5 20 7
28 4 8 -3 13 2 13 16 0 16 -7 21 -27 22 -25 2 -26 2 -5 6 16 3 22 9 18 20 -4
9 -1 23 6 31 11 13 11 14 0 8 -8 -5 -21 -1 -34 11 l-21 18 17 -35 c9 -19 11
-26 4 -15 -16 25 -67 76 -93 93 -11 7 3 1 30 -13 l50 -25 -34 28 c-24 20 -32
33 -26 43 7 12 6 12 -7 1 -8 -7 -22 -10 -31 -6 -11 4 -17 -2 -20 -18 -4 -21
-4 -20 -6 5 -1 20 -6 27 -22 27 -14 0 -19 -5 -16 -13 3 -8 1 -20 -4 -28 -6
-10 -9 -10 -9 -2 0 10 -336 13 -1620 15 -1434 3 -1620 1 -1620 -12 0 -13 -2
-13 -9 -1 -5 8 -7 20 -4 28 3 8 -2 13 -16 13 -13 0 -21 -6 -21 -17z m3116
-362 c-7 -11 18 -33 27 -24 4 3 7 -472 7 -1057 0 -585 -3 -1060 -7 -1057 -9 9
-34 -13 -27 -24 3 -5 -658 -9 -1535 -9 l-1539 0 5 22 c4 11 2 19 -3 15 -5 -3
-9 9 -9 26 0 20 -5 31 -12 30 -10 -2 -13 213 -13 1029 0 567 3 1028 7 1025 9
-9 34 13 27 24 -3 5 651 9 1536 9 885 0 1539 -4 1536 -9z m-3481 -239 c-8 -8
16 -32 26 -26 5 3 9 -387 9 -905 0 -719 -3 -910 -13 -908 -7 1 -12 -9 -13 -23
0 -37 -8 -45 -43 -44 -38 1 -45 7 -46 42 0 16 -5 26 -12 25 -10 -2 -13 189
-13 909 0 501 3 908 7 905 8 -9 34 13 28 23 -2 4 14 7 35 7 22 0 38 -2 35 -5z"/>
<path d="M1939 3100 c-35 -36 -54 -98 -26 -87 7 3 20 1 28 -4 9 -6 10 -9 2 -9
-10 0 -13 -78 -15 -330 -3 -288 -1 -330 12 -330 13 0 13 -2 1 -9 -8 -5 -20 -7
-28 -4 -10 4 -13 -3 -11 -24 3 -42 63 -99 103 -99 26 1 30 4 28 26 -2 16 0 20
5 10 6 -13 70 -15 482 -15 412 0 476 2 482 15 5 10 7 6 5 -10 -2 -21 3 -26 26
-28 22 -3 37 6 67 36 43 42 52 80 25 102 -13 11 -15 56 -13 336 3 283 1 324
-12 324 -13 0 -13 2 -1 9 8 5 21 7 28 4 28 -11 9 51 -26 87 -35 37 -99 56 -88
27 3 -8 1 -20 -4 -28 -6 -10 -9 -10 -9 -1 0 9 -103 12 -480 12 -377 0 -480 -3
-480 -12 0 -9 -3 -9 -9 1 -5 8 -7 20 -4 28 11 29 -53 10 -88 -27z m857 -277
c-8 -8 14 -34 24 -28 5 3 9 -53 9 -125 0 -72 -4 -128 -9 -125 -10 6 -32 -20
-24 -28 4 -4 -120 -6 -275 -6 -155 0 -279 3 -276 8 6 10 -19 33 -28 25 -3 -3
-6 53 -6 126 0 73 3 129 6 126 9 -8 34 15 28 25 -3 5 121 8 276 8 155 0 279
-2 275 -6z"/>
<path d="M3379 3100 c-38 -39 -48 -80 -25 -100 21 -17 22 -103 1 -120 -26 -22
-18 -60 23 -99 27 -27 45 -37 67 -37 26 1 30 4 28 26 -2 16 0 20 5 10 6 -13
56 -15 362 -15 306 0 356 2 362 15 5 10 7 6 5 -10 -2 -21 3 -26 26 -28 22 -3
36 5 65 35 38 39 58 101 29 90 -7 -3 -20 -1 -28 4 -10 6 -10 9 -1 9 8 0 12 19
12 60 0 41 -4 60 -12 60 -9 0 -9 3 1 9 8 5 21 7 28 4 28 -11 9 51 -26 87 -35
37 -99 56 -88 27 3 -8 1 -20 -4 -28 -6 -10 -9 -10 -9 -1 0 9 -79 12 -360 12
-281 0 -360 -3 -360 -12 0 -9 -3 -9 -9 1 -5 8 -7 20 -4 28 11 29 -53 10 -88
-27z"/>
<path d="M3377 2560 c-29 -30 -38 -46 -35 -67 2 -23 8 -28 28 -26 14 1 18 0
10 -3 -11 -3 -14 -17 -12 -57 3 -39 -1 -57 -12 -66 -27 -23 -19 -60 22 -100
27 -27 45 -37 67 -37 26 1 30 4 28 26 -2 16 0 20 5 10 6 -13 56 -15 362 -15
306 0 356 2 362 15 5 10 7 6 5 -10 -2 -21 3 -26 26 -28 22 -3 36 5 65 35 38
39 58 101 29 90 -7 -3 -20 -1 -28 4 -10 6 -10 9 -1 9 8 0 12 19 12 60 0 41 -4
60 -12 60 -9 0 -9 3 1 9 8 5 21 7 28 4 29 -11 9 51 -29 90 -29 30 -43 38 -65
35 -23 -2 -28 -7 -26 -28 2 -16 0 -20 -5 -10 -6 13 -56 15 -362 15 -306 0
-356 -2 -362 -15 -5 -10 -7 -6 -5 10 2 21 -3 25 -28 27 -24 2 -38 -6 -68 -37z"/>
<path d="M1940 2022 c-36 -38 -55 -100 -27 -89 7 3 20 1 28 -4 10 -6 10 -9 2
-9 -9 0 -13 -19 -13 -60 0 -41 4 -60 13 -60 8 0 8 -3 -2 -9 -8 -5 -21 -7 -28
-4 -28 11 -9 -51 26 -87 35 -37 99 -56 88 -27 -3 8 -1 20 4 28 6 10 9 10 9 2
0 -10 103 -13 480 -13 377 0 480 3 480 13 0 8 3 8 9 -2 5 -8 7 -20 4 -28 -11
-29 53 -10 88 27 35 36 54 98 26 87 -7 -3 -20 -1 -28 4 -10 6 -10 9 -1 9 8 0
12 18 12 54 0 36 5 58 16 66 24 20 13 61 -28 103 -29 30 -43 38 -65 35 -23 -2
-28 -7 -26 -28 2 -16 0 -20 -5 -10 -6 13 -70 15 -482 15 -412 0 -476 -2 -482
-15 -5 -10 -7 -6 -5 10 2 21 -3 25 -28 27 -23 2 -38 -5 -65 -35z"/>
<path d="M3378 2021 c-41 -42 -49 -80 -22 -102 12 -9 15 -27 12 -66 -2 -42 0
-53 12 -53 13 0 13 -2 1 -9 -8 -5 -21 -7 -28 -4 -28 11 -9 -51 26 -87 35 -37
99 -56 88 -27 -3 8 -1 20 4 28 6 10 9 10 9 2 0 -10 79 -13 360 -13 281 0 360
3 360 13 0 8 3 8 9 -2 5 -8 7 -20 4 -28 -11 -29 53 -10 88 27 35 36 54 98 26
87 -7 -3 -20 -1 -28 4 -10 6 -10 9 -1 9 8 0 12 19 12 60 0 41 -4 60 -12 60 -9
0 -9 3 1 9 8 5 21 7 28 4 29 -11 9 51 -29 90 -29 30 -43 38 -65 35 -23 -2 -28
-7 -26 -28 2 -16 0 -20 -5 -10 -6 13 -56 15 -362 15 -306 0 -356 -2 -362 -15
-5 -10 -7 -6 -5 10 2 21 -3 25 -28 27 -23 2 -38 -6 -67 -36z"/>
</g>
</svg>
