<?xml version="1.0" encoding="iso-8859-1"?>
<!-- Generator: Adobe Illustrator 19.0.0, SVG Export Plug-In . SVG Version: 6.00 Build 0)  -->
<svg version="1.1" id="Capa_1" xmlns="http://www.w3.org/2000/svg" xmlns:xlink="http://www.w3.org/1999/xlink" x="0px" y="0px"
	 viewBox="0 0 512 512" style="enable-background:new 0 0 512 512;" xml:space="preserve">
<path style="fill:#5C5560;" d="M512,256c0,69.904-28.024,133.277-73.446,179.472C392.108,482.711,327.471,512,256,512
	c-71.481,0-136.119-29.299-182.565-76.539C28.014,389.266,0,325.904,0,256S28.014,122.734,73.435,76.539
	c21.901-22.277,47.846-40.563,76.643-53.666C182.356,8.182,218.216,0,256,0C397.385,0,512,114.615,512,256z"/>
<path style="fill:#4989F8;" d="M438.554,146.275v289.196C392.108,482.711,327.471,512,256,512
	c-71.481,0-136.119-29.299-182.565-76.539V55.118c0-17.805,14.43-32.246,32.246-32.246h209.492L438.554,146.275z"/>
<polygon style="fill:#437CE9;" points="438.557,146.277 438.557,249.699 330.054,141.196 341.37,127.229 "/>
<path style="fill:#A5C4FC;" d="M438.557,146.277h-91.139c-17.808,0-32.243-14.436-32.243-32.243V22.877L438.557,146.277z"/>
<g>
	<rect x="163.85" y="246.063" style="fill:#F2F2F2;" width="184.289" height="23.251"/>
	<rect x="163.85" y="367.386" style="fill:#F2F2F2;" width="113.789" height="23.251"/>
	<rect x="163.85" y="326.938" style="fill:#F2F2F2;" width="184.289" height="23.251"/>
	<rect x="163.85" y="286.501" style="fill:#F2F2F2;" width="184.289" height="23.251"/>
</g>
<g>
</g>
<g>
</g>
<g>
</g>
<g>
</g>
<g>
</g>
<g>
</g>
<g>
</g>
<g>
</g>
<g>
</g>
<g>
</g>
<g>
</g>
<g>
</g>
<g>
</g>
<g>
</g>
<g>
</g>
</svg>
