<svg xmlns="http://www.w3.org/2000/svg" viewBox="0 0 512 512" enable-background="new 0 0 512 512"><path d="M512 256c0 69.904-28.024 133.277-73.446 179.472-46.446 47.239-111.083 76.528-182.554 76.528-71.481 0-136.119-29.299-182.565-76.539-45.421-46.195-73.435-109.557-73.435-179.461s28.014-133.266 73.435-179.461c21.901-22.277 47.846-40.563 76.643-53.666 32.278-14.691 68.138-22.873 105.922-22.873 141.385 0 256 114.615 256 256z" fill="#5C5560"/><path d="M438.554 146.275v289.196c-46.446 47.24-111.083 76.529-182.554 76.529-71.481 0-136.119-29.299-182.565-76.539v-380.343c0-17.805 14.43-32.246 32.246-32.246h209.492l123.381 123.403z" fill="#4989F8"/><path fill="#437CE9" d="M438.557 146.277v103.422l-108.503-108.503 11.316-13.967z"/><path d="M438.557 146.277h-91.139c-17.808 0-32.243-14.436-32.243-32.243v-91.157l123.382 123.4z" fill="#A5C4FC"/><g fill="#F2F2F2"><path d="M163.85 246.063h184.289v23.251h-184.289zM163.85 367.386h113.789v23.251h-113.789zM163.85 326.938h184.289v23.251h-184.289zM163.85 286.501h184.289v23.251h-184.289z"/></g></svg>