<svg xmlns="http://www.w3.org/2000/svg" viewBox="0 0 52.502 52.502" enable-background="new 0 0 52.502 52.502"><g fill="#26B99A"><path d="M21.524 16.094v-12.048l-20.108 19.952 20.108 20.143v-12.047s17.598-4.355 29.712 16c0 0 3.02-15.536-10.51-26.794.001-.001-5.991-5.604-19.202-5.206zM51.718 50.857l-1.341-2.252c-10.214-17.164-24.401-16.203-27.853-15.68v13.634l-22.524-22.564 22.524-22.351v13.431c12.728-.103 18.644 5.268 18.886 5.494 13.781 11.465 10.839 27.554 10.808 27.715l-.5 2.573zm-26.073-20.155c5.761 0 16.344 1.938 24.854 14.376.128-4.873-.896-15.094-10.41-23.01-.099-.088-5.982-5.373-18.533-4.975l-1.03.03v-10.676l-17.694 17.554 17.692 17.724v-10.414l.76-.188c.07-.018 1.73-.421 4.361-.421z"/></g></svg>