<?xml version="1.0" standalone="no"?>
<!DOCTYPE svg PUBLIC "-//W3C//DTD SVG 20010904//EN"
 "http://www.w3.org/TR/2001/REC-SVG-20010904/DTD/svg10.dtd">
<svg version="1.0" xmlns="http://www.w3.org/2000/svg"
 width="576.000000pt" height="480.000000pt" viewBox="0 0 576.000000 480.000000"
 preserveAspectRatio="xMidYMid meet">
<metadata>
Created by potrace 1.15, written by Peter Selinger 2001-2017
</metadata>
<g transform="translate(0.000000,480.000000) scale(0.100000,-0.100000)"
fill="#000000" stroke="none">
<path d="M1890 4339 c0 -8 -59 -10 -195 -7 -170 3 -195 1 -195 -12 0 -14 19
-15 133 -13 72 1 123 0 112 -3 -243 -64 -438 -246 -517 -484 l-18 -55 3 128
c2 109 1 127 -13 127 -13 0 -15 -24 -12 -195 3 -136 1 -195 -7 -195 -6 0 -11
-13 -11 -30 0 -20 5 -30 15 -30 13 0 15 -137 15 -1170 0 -1033 -2 -1170 -15
-1170 -10 0 -15 -10 -15 -30 0 -16 5 -30 11 -30 8 0 10 -59 7 -195 -3 -171 -1
-195 12 -195 14 0 15 18 13 128 l-3 127 18 -55 c74 -221 234 -384 462 -467
l65 -24 -127 3 c-110 3 -128 2 -128 -12 0 -13 24 -15 195 -12 136 3 195 1 195
-7 0 -6 14 -11 30 -11 20 0 30 5 30 15 0 13 140 15 1200 15 1060 0 1200 -2
1200 -15 0 -10 10 -15 30 -15 17 0 30 5 30 11 0 8 15 9 45 5 40 -7 45 -5 45
13 0 10 -4 21 -9 23 -5 1 4 15 20 29 16 15 29 23 29 18 0 -5 9 -9 21 -9 18 0
20 4 13 45 -4 30 -3 45 5 45 6 0 11 14 11 30 0 20 -5 30 -15 30 -10 0 -15 10
-15 30 0 20 5 30 15 30 10 0 15 10 15 30 0 17 -4 30 -9 30 -4 0 -6 11 -3 25 4
21 0 25 -19 26 -13 0 -18 3 -11 6 17 7 15 32 -3 39 -8 4 -15 15 -15 25 0 12
-7 19 -19 19 -13 0 -20 9 -24 33 -16 100 -16 335 0 435 4 23 11 32 24 32 12 0
19 7 19 19 0 10 7 22 16 25 10 4 14 14 11 26 -3 14 0 20 10 20 11 0 14 7 11
25 -3 14 -1 25 3 25 5 0 9 14 9 30 0 20 -5 30 -15 30 -13 0 -15 143 -15 1230
0 1087 2 1230 15 1230 10 0 15 10 15 30 0 17 -5 30 -11 30 -8 0 -9 15 -5 45 7
41 5 45 -13 45 -12 0 -21 -4 -21 -9 0 -5 -13 3 -29 18 -16 14 -25 28 -20 29 5
2 9 13 9 23 0 18 -5 20 -45 13 -30 -4 -45 -3 -45 5 0 6 -13 11 -30 11 -20 0
-30 -5 -30 -15 0 -13 -140 -15 -1200 -15 -1060 0 -1200 2 -1200 15 0 10 -10
15 -30 15 -16 0 -30 -5 -30 -11z m1870 -994 c0 -9 9 -15 25 -15 20 0 25 -5 25
-25 0 -16 6 -25 15 -25 11 0 15 -11 15 -40 0 -29 -4 -40 -15 -40 -9 0 -15 -9
-15 -25 0 -20 -5 -25 -25 -25 -16 0 -25 -6 -25 -15 0 -13 -91 -15 -760 -15
-669 0 -760 2 -760 15 0 9 -9 15 -25 15 -20 0 -25 5 -25 25 0 16 -6 25 -15 25
-11 0 -15 11 -15 40 0 29 4 40 15 40 9 0 15 9 15 25 0 20 5 25 25 25 16 0 25
6 25 15 0 13 91 15 760 15 669 0 760 -2 760 -15z m0 -480 c0 -9 9 -15 25 -15
20 0 25 -5 25 -25 0 -16 6 -25 15 -25 11 0 15 -11 15 -40 0 -29 -4 -40 -15
-40 -9 0 -15 -9 -15 -25 0 -20 -5 -25 -25 -25 -16 0 -25 -6 -25 -15 0 -13 -91
-15 -760 -15 -669 0 -760 2 -760 15 0 9 -9 15 -25 15 -20 0 -25 5 -25 25 0 16
-6 25 -15 25 -11 0 -15 11 -15 40 0 29 4 40 15 40 9 0 15 9 15 25 0 20 5 25
25 25 16 0 25 6 25 15 0 13 91 15 760 15 669 0 760 -2 760 -15z m270 -1440 c0
-8 4 -15 9 -15 12 0 2 -70 -13 -89 -7 -10 -6 -16 6 -25 22 -16 21 -175 -1
-192 -11 -9 -12 -15 -5 -25 15 -19 25 -89 13 -89 -5 0 -9 -7 -9 -15 0 -13
-122 -15 -1040 -15 -918 0 -1040 2 -1040 15 0 10 -10 15 -30 15 -16 0 -30 -4
-30 -10 0 -34 -120 27 -159 81 -33 45 -50 101 -32 107 15 5 14 59 -1 64 -21 7
8 81 47 121 53 55 145 97 145 67 0 -5 14 -10 30 -10 20 0 30 5 30 15 0 13 122
15 1040 15 918 0 1040 -2 1040 -15z"/>
</g>
</svg>
