<svg xmlns="http://www.w3.org/2000/svg" viewBox="0 0 286.054 286.054" enable-background="new 0 0 286.054 286.054"><path d="M143.027 0c-78.987 0-143.027 64.04-143.027 143.027 0 78.996 64.04 143.027 143.027 143.027s143.027-64.031 143.027-143.027c0-78.987-64.04-143.027-143.027-143.027zm0 259.236c-64.183 0-116.209-52.026-116.209-116.209s52.026-116.209 116.209-116.209 116.209 52.026 116.209 116.209-52.026 116.209-116.209 116.209zm25.325-116.298l25.289-25.289c3.486-3.486 3.486-9.145 0-12.631l-12.649-12.649c-3.495-3.486-9.145-3.495-12.64 0l-25.289 25.289-25.271-25.271c-3.495-3.504-9.163-3.504-12.658-.018l-12.649 12.649c-3.486 3.486-3.486 9.145.009 12.649l25.271 25.271-25.217 25.217c-3.495 3.495-3.495 9.145 0 12.649l12.64 12.64c3.495 3.486 9.154 3.486 12.64 0l25.226-25.226 25.405 25.414c3.504 3.495 9.163 3.504 12.658.009l12.64-12.64c3.495-3.495 3.486-9.154-.009-12.649l-25.396-25.414z" fill="#3DB39E"/></svg>