<?xml version="1.0" standalone="no"?>
<!DOCTYPE svg PUBLIC "-//W3C//DTD SVG 20010904//EN"
 "http://www.w3.org/TR/2001/REC-SVG-20010904/DTD/svg10.dtd">
<svg version="1.0" xmlns="http://www.w3.org/2000/svg"
 width="576.000000pt" height="480.000000pt" viewBox="0 0 576.000000 480.000000"
 preserveAspectRatio="xMidYMid meet">
<metadata>
Created by potrace 1.15, written by Peter Selinger 2001-2017
</metadata>
<g transform="translate(0.000000,480.000000) scale(0.100000,-0.100000)"
fill="#000000" stroke="none">
<path d="M1534 4332 c4 -7 2 -19 -4 -27 -15 -18 -7 -19 23 -5 21 10 21 10 2
-2 -11 -7 -37 -31 -59 -52 -28 -29 -35 -33 -26 -15 7 13 18 31 24 40 6 8 -3 0
-20 -19 -22 -24 -36 -32 -45 -26 -12 6 -12 5 -1 -8 7 -8 10 -22 6 -31 -4 -11
2 -17 18 -20 21 -4 20 -4 -4 -6 -21 -1 -28 -6 -28 -22 0 -14 5 -19 13 -16 8 3
20 1 28 -4 10 -6 10 -9 2 -9 -10 0 -13 -349 -13 -1710 0 -1361 3 -1710 13
-1710 8 0 8 -3 -2 -9 -8 -5 -20 -7 -28 -4 -8 3 -13 -2 -13 -16 0 -16 7 -21 28
-22 24 -2 25 -2 4 -6 -16 -3 -22 -9 -18 -20 4 -9 1 -23 -6 -31 -11 -13 -11
-14 1 -8 9 6 23 -2 45 -26 17 -19 26 -27 20 -19 -7 9 -19 32 -28 51 -9 19 -11
26 -4 15 17 -25 68 -76 93 -93 19 -12 18 -12 -2 -2 -30 14 -38 13 -23 -5 6 -8
8 -20 4 -27 -6 -11 -5 -11 8 0 8 7 22 10 31 6 11 -4 17 2 20 18 4 21 4 20 6
-4 1 -21 6 -28 22 -28 14 0 19 5 16 13 -3 8 -1 20 4 28 6 10 9 10 9 2 0 -10
253 -13 1230 -13 977 0 1230 3 1230 13 0 8 3 8 9 -2 5 -8 7 -20 4 -28 -3 -8 2
-13 16 -13 16 0 21 7 22 28 2 24 2 25 6 4 3 -16 9 -22 20 -18 9 4 23 1 31 -6
13 -11 14 -11 8 0 -4 7 -2 19 4 27 15 18 7 19 -23 5 -20 -10 -21 -10 -2 2 25
17 76 68 93 93 7 11 5 4 -4 -15 -9 -19 -21 -42 -28 -51 -6 -8 3 0 20 19 22 24
36 32 45 26 12 -6 12 -5 1 8 -7 8 -10 22 -6 31 4 11 -2 17 -18 20 -21 4 -20 4
5 6 20 1 27 6 27 22 0 14 -5 19 -13 16 -8 -3 -20 -1 -28 4 -10 6 -10 9 -1 9
19 0 18 2386 -2 2406 -12 11 -95 14 -495 14 -366 1 -480 4 -478 13 1 6 -8 13
-20 15 -17 2 -23 -2 -23 -15 0 -15 -2 -16 -10 -3 -6 9 -10 11 -10 3 0 -7 -7
-10 -15 -7 -8 4 -13 10 -10 14 3 5 -3 11 -14 15 -26 8 -81 71 -81 93 0 13 -2
14 -9 4 -7 -11 -9 -11 -14 2 -4 9 -1 16 6 16 8 0 6 4 -3 10 -13 8 -12 10 3 10
13 0 17 6 15 23 -2 12 -9 21 -15 20 -9 -2 -12 112 -13 478 0 400 -3 483 -14
495 -20 20 -1446 21 -1446 2 0 -9 -3 -9 -9 1 -5 8 -7 20 -4 28 3 8 -2 13 -16
13 -16 0 -21 -7 -22 -27 -2 -25 -2 -26 -6 -5 -3 16 -9 22 -20 18 -9 -4 -23 -1
-31 6 -13 11 -14 11 -8 0z m1953 -1695 c-1 -7 11 -13 31 -15 20 -2 32 1 32 9
0 7 3 9 8 5 4 -4 7 -13 7 -19 0 -7 5 -12 12 -12 6 0 15 -3 19 -7 4 -5 2 -8 -4
-8 -8 0 -12 -25 -12 -76 0 -57 3 -73 13 -68 7 4 9 3 4 -2 -5 -5 -14 -9 -20 -9
-7 0 -12 -5 -12 -12 0 -6 -3 -15 -7 -19 -5 -4 -8 -2 -8 5 0 8 -12 11 -32 9
-20 -2 -32 -8 -31 -15 2 -10 -129 -13 -607 -13 -478 0 -609 3 -607 13 1 7 -13
13 -37 15 -29 3 -36 0 -30 -10 4 -8 3 -10 -2 -5 -5 5 -9 14 -9 20 0 7 -5 12
-12 12 -6 0 -15 3 -19 8 -4 4 -2 7 4 7 8 0 12 23 12 70 0 47 -4 70 -12 70 -6
0 -8 3 -4 8 4 4 13 7 19 7 7 0 12 6 12 14 0 8 6 16 14 19 9 3 11 0 6 -7 -5 -9
2 -12 26 -9 20 2 33 8 32 15 -2 10 129 13 607 13 478 0 609 -3 607 -13z m0
-480 c-1 -7 11 -13 31 -15 20 -2 32 1 32 9 0 7 3 9 8 5 4 -4 7 -13 7 -19 0 -7
5 -12 12 -12 6 0 15 -3 19 -7 4 -5 2 -8 -4 -8 -8 0 -12 -25 -12 -76 0 -57 3
-73 13 -68 7 4 9 3 4 -2 -5 -5 -14 -9 -20 -9 -7 0 -12 -5 -12 -12 0 -6 -3 -15
-7 -19 -5 -4 -8 -2 -8 5 0 8 -12 11 -32 9 -20 -2 -32 -8 -31 -15 2 -10 -129
-13 -607 -13 -478 0 -609 3 -607 13 1 7 -13 13 -37 15 -29 3 -36 0 -30 -10 4
-8 3 -10 -2 -5 -5 5 -9 14 -9 20 0 7 -5 12 -12 12 -6 0 -15 3 -19 8 -4 4 -2 7
4 7 8 0 12 23 12 70 0 47 -4 70 -12 70 -6 0 -8 3 -4 8 4 4 13 7 19 7 7 0 12 6
12 14 0 8 6 16 14 19 9 3 11 0 6 -7 -5 -9 2 -12 26 -9 20 2 33 8 32 15 -2 10
129 13 607 13 478 0 609 -3 607 -13z m0 -480 c-1 -7 11 -13 31 -15 20 -2 32 1
32 9 0 7 3 9 8 5 4 -4 7 -13 7 -19 0 -7 5 -12 12 -12 6 0 15 -3 19 -7 4 -5 2
-8 -5 -8 -9 0 -12 -21 -9 -79 2 -47 -1 -79 -7 -78 -5 1 -9 -3 -10 -10 0 -16
-15 -29 -15 -14 0 8 -12 11 -32 9 -20 -2 -32 -8 -31 -15 2 -10 -129 -13 -607
-13 -478 0 -609 3 -607 13 1 7 -13 13 -37 15 -29 3 -36 0 -30 -10 4 -8 3 -10
-2 -5 -5 5 -9 14 -9 20 -1 7 -5 11 -10 10 -6 -1 -9 31 -6 78 2 59 0 79 -10 79
-7 0 -9 3 -5 8 4 4 13 7 19 7 7 0 12 6 12 14 0 8 6 16 14 19 9 3 11 0 6 -7 -5
-9 2 -12 26 -9 20 2 33 8 32 15 -2 10 129 13 607 13 478 0 609 -3 607 -13z"/>
<path d="M3346 4333 c-12 -12 -6 -33 9 -33 14 0 15 -53 13 -455 -2 -359 0
-455 10 -455 6 0 12 -6 12 -12 0 -10 96 -13 447 -13 389 0 449 2 455 15 4 10
7 5 7 -13 1 -22 5 -28 19 -25 12 2 18 14 19 42 1 21 5 41 8 44 7 7 -15 32 -29
32 -6 0 -4 -5 4 -11 12 -9 12 -10 1 -7 -21 6 -26 28 -6 28 15 0 15 3 5 15 -7
9 -10 18 -7 22 10 9 -42 46 -57 40 -8 -3 -77 59 -167 151 l-154 157 151 -148
c143 -141 153 -148 185 -144 l34 4 -35 1 c-31 2 -52 19 -180 147 -79 79 -146
142 -149 139 -7 -7 -291 278 -286 287 3 4 -3 13 -13 20 -16 13 -16 12 -3 -6 8
-11 -10 4 -41 33 -36 36 -54 60 -51 71 2 10 -4 24 -13 32 -16 13 -17 12 -11
-5 6 -16 5 -17 -8 -6 -8 7 -13 15 -11 19 3 4 -4 12 -15 19 -16 10 -19 9 -19
-4 0 -19 -22 -14 -28 7 -3 11 -1 11 8 -1 10 -13 11 -13 7 0 -2 11 -19 16 -54
17 -28 1 -54 -1 -57 -4z"/>
</g>
</svg>
