<?xml version="1.0" standalone="no"?>
<!DOCTYPE svg PUBLIC "-//W3C//DTD SVG 20010904//EN"
 "http://www.w3.org/TR/2001/REC-SVG-20010904/DTD/svg10.dtd">
<svg version="1.0" xmlns="http://www.w3.org/2000/svg"
 width="576.000000pt" height="480.000000pt" viewBox="0 0 576.000000 480.000000"
 preserveAspectRatio="xMidYMid meet">
<metadata>
Created by potrace 1.15, written by Peter Selinger 2001-2017
</metadata>
<g transform="translate(0.000000,480.000000) scale(0.100000,-0.100000)"
fill="#000000" stroke="none">
<path d="M1590 4339 c0 -8 -15 -9 -45 -5 -41 7 -45 5 -45 -13 0 -12 4 -21 9
-21 6 0 -2 -12 -17 -27 -15 -16 -28 -25 -30 -20 -2 4 -13 7 -23 7 -18 0 -20
-5 -13 -45 4 -30 3 -45 -5 -45 -6 0 -11 -13 -11 -30 0 -20 5 -30 15 -30 13 0
15 -197 15 -1710 0 -1513 -2 -1710 -15 -1710 -10 0 -15 -10 -15 -30 0 -16 5
-30 11 -30 8 0 9 -15 5 -45 -7 -40 -5 -45 13 -45 10 0 21 3 23 8 2 4 15 -5 30
-21 15 -15 23 -27 17 -27 -5 0 -9 -9 -9 -21 0 -18 4 -20 45 -13 30 4 45 3 45
-5 0 -6 14 -11 30 -11 20 0 30 5 30 15 0 13 143 15 1230 15 1087 0 1230 -2
1230 -15 0 -10 10 -15 30 -15 17 0 30 5 30 11 0 8 15 9 45 5 41 -7 45 -5 45
13 0 12 -4 21 -9 21 -6 0 2 12 17 28 15 15 29 24 30 20 2 -5 13 -8 23 -8 18 0
20 5 13 45 -4 30 -3 45 5 45 6 0 11 14 11 30 0 20 -5 30 -15 30 -13 0 -15 140
-15 1200 0 1060 2 1200 15 1200 10 0 15 10 15 30 0 27 -3 30 -30 30 -20 0 -30
-5 -30 -15 0 -13 -60 -15 -480 -15 -420 0 -480 2 -480 15 0 18 -56 21 -62 3
-6 -17 -59 6 -91 40 -31 33 -53 85 -38 90 17 6 13 62 -4 62 -13 0 -15 60 -15
480 0 420 2 480 15 480 10 0 15 10 15 30 0 27 -3 30 -30 30 -20 0 -30 -5 -30
-15 0 -13 -87 -15 -720 -15 -633 0 -720 2 -720 15 0 10 -10 15 -30 15 -16 0
-30 -5 -30 -11z m1890 -1715 c0 -14 7 -16 40 -11 23 3 43 1 46 -5 9 -14 9
-162 0 -176 -3 -6 -23 -8 -46 -5 -33 5 -40 3 -40 -11 0 -15 -52 -16 -600 -16
-548 0 -600 1 -600 16 0 14 -7 16 -40 11 -23 -3 -43 -1 -46 5 -4 6 -7 45 -7
88 0 43 3 82 7 88 3 6 23 8 46 5 33 -5 40 -3 40 11 0 15 52 16 600 16 548 0
600 -1 600 -16z m0 -480 c0 -14 7 -16 40 -11 23 3 43 1 46 -5 9 -14 9 -162 0
-176 -3 -6 -23 -8 -46 -5 -33 5 -40 3 -40 -11 0 -15 -52 -16 -600 -16 -548 0
-600 1 -600 16 0 14 -7 16 -40 11 -23 -3 -43 -1 -46 5 -4 6 -7 45 -7 88 0 43
3 82 7 88 3 6 23 8 46 5 33 -5 40 -3 40 11 0 15 52 16 600 16 548 0 600 -1
600 -16z m0 -480 c0 -14 7 -16 40 -11 23 3 43 1 46 -5 9 -14 9 -162 0 -176 -3
-6 -23 -8 -46 -5 -33 5 -40 3 -40 -11 0 -15 -52 -16 -600 -16 -548 0 -600 1
-600 16 0 14 -7 16 -40 11 -23 -3 -43 -1 -46 5 -4 6 -7 45 -7 88 0 43 3 82 7
88 3 6 23 8 46 5 33 -5 40 -3 40 11 0 15 52 16 600 16 548 0 600 -1 600 -16z"/>
<path d="M3330 4320 c0 -20 5 -30 15 -30 13 0 15 -57 15 -450 0 -393 -2 -450
-15 -450 -10 0 -15 -10 -15 -30 0 -27 3 -30 30 -30 20 0 30 5 30 15 0 13 57
15 450 15 393 0 450 -2 450 -15 0 -10 10 -15 30 -15 30 0 30 1 30 53 0 28 -7
65 -15 81 -8 15 -15 35 -15 42 0 8 -4 14 -10 14 -5 0 -10 11 -10 25 0 22 -4
25 -33 25 -29 0 -64 32 -365 333 -300 300 -332 335 -332 365 0 27 -3 32 -25
32 -14 0 -25 5 -25 10 0 6 -6 10 -14 10 -7 0 -27 7 -42 15 -16 8 -53 15 -81
15 -52 0 -53 0 -53 -30z"/>
</g>
</svg>
